<?xml version="1.0" ?><svg height="400px" version="1.1" viewBox="0 0 400 400" width="400px" xmlns="http://www.w3.org/2000/svg" xmlns:xlink="http://www.w3.org/1999/xlink"><title/><desc/><defs><path d="M98.3802757,151.71633 C96.6497798,155.338843 95.1230337,159.034369 93.8000375,162.785714 L70.5010558,162.785714 C69.39507,162.785714 68.5,163.680295 68.5,164.783817 L68.5,236.216183 C68.5,237.314641 69.3959032,238.214286 70.5010558,238.214286 L93.8000375,238.214286 C95.1230337,241.965631 96.6497798,245.661157 98.3802757,249.28367 L81.9088378,265.755108 C81.1267877,266.537158 81.126442,267.802632 81.9067497,268.58294 L132.41706,319.09325 C133.193787,319.869977 134.463431,319.872623 135.244892,319.091162 L151.71633,302.619724 C155.338843,304.35022 159.034369,305.876966 162.785714,307.199962 L162.785714,330.498944 C162.785714,331.60493 163.680295,332.5 164.783817,332.5 L236.216183,332.5 C237.314641,332.5 238.214286,331.604097 238.214286,330.498944 L238.214286,307.199962 C241.965631,305.876966 245.661157,304.35022 249.28367,302.619724 L265.755108,319.091162 C266.537158,319.873212 267.802632,319.873558 268.58294,319.09325 L319.09325,268.58294 C319.869977,267.806213 319.872623,266.536569 319.091162,265.755108 L302.619724,249.28367 C304.35022,245.661157 305.876966,241.965631 307.199962,238.214286 L330.498944,238.214286 C331.60493,238.214286 332.5,237.319705 332.5,236.216183 L332.5,164.783817 C332.5,163.685359 331.604097,162.785714 330.498944,162.785714 L307.199962,162.785714 C305.876966,159.034369 304.35022,155.338844 302.619725,151.716331 L319.091162,135.244892 C319.873212,134.462842 319.873558,133.197368 319.09325,132.41706 L268.58294,81.9067497 C267.806213,81.1300229 266.536569,81.1273769 265.755108,81.9088378 L249.283673,98.3802725 C245.661156,96.6497796 241.965631,95.1230336 238.214286,93.8000375 L238.214286,70.5010558 C238.214286,69.39507 237.319705,68.5 236.216183,68.5 L164.783817,68.5 C163.685359,68.5 162.785714,69.3959032 162.785714,70.5010558 L162.785714,93.8000375 C159.034369,95.1230337 155.338843,96.6497798 151.71633,98.3802757 L135.244892,81.9088378 C134.462842,81.1267877 133.197368,81.126442 132.41706,81.9067497 L81.9067497,132.41706 C81.1300229,133.193787 81.1273769,134.463431 81.9088378,135.244892 L98.3802757,151.71633 L98.3802757,151.71633 L98.3802757,151.71633 Z M200.640398,266.710597 C237.129962,266.710597 266.710597,237.129962 266.710597,200.640398 C266.710597,164.150835 237.129962,134.570199 200.640398,134.570199 C164.150835,134.570199 134.570199,164.150835 134.570199,200.640398 C134.570199,237.129962 164.150835,266.710597 200.640398,266.710597 L200.640398,266.710597 L200.640398,266.710597 Z" id="path-1"/><filter filterUnits="objectBoundingBox" height="200%" id="filter-2" width="200%" x="-50%" y="-50%"><feOffset dx="0" dy="4" in="SourceAlpha" result="shadowOffsetOuter1"/><feGaussianBlur in="shadowOffsetOuter1" result="shadowBlurOuter1" stdDeviation="2"/><feColorMatrix in="shadowBlurOuter1" type="matrix" values="0 0 0 0 0   0 0 0 0 0   0 0 0 0 0  0 0 0 0.5 0"/></filter></defs><g fill="none" fill-rule="evenodd" id="Page-1" stroke="none" stroke-width="1"><g id="gear"><path d="M200,400 C310.45695,400 400,310.45695 400,200 C400,89.54305 310.45695,0 200,0 C89.54305,0 0,89.54305 0,200 C0,310.45695 89.54305,400 200,400 Z" fill="#AAD8B0" id="Oval-6"/><g id="Combined-Shape"><use fill="black" fill-opacity="1" filter="url(#filter-2)" xlink:href="#path-1"/><use fill="#FBF0B8" fill-rule="evenodd" xlink:href="#path-1"/></g></g></g></svg>