<?xml version="1.0" ?><svg enable-background="new 0 0 512 512" id="Layer_1" version="1.1" viewBox="0 0 512 512" xml:space="preserve" xmlns="http://www.w3.org/2000/svg" xmlns:xlink="http://www.w3.org/1999/xlink"><g><g><linearGradient gradientUnits="userSpaceOnUse" id="SVGID_1_" x1="-0.0000027" x2="512" y1="256" y2="256"><stop offset="0" style="stop-color:#33B49D"/><stop offset="1" style="stop-color:#00A185"/></linearGradient><circle cx="256" cy="256" fill="url(#SVGID_1_)" r="256"/><linearGradient gradientUnits="userSpaceOnUse" id="SVGID_2_" x1="42.6666641" x2="469.3333435" y1="256.0005188" y2="256.0005188"><stop offset="0" style="stop-color:#00A185"/><stop offset="1" style="stop-color:#33B49D"/></linearGradient><path d="M256,469.3338623c-117.6315308,0-213.3333435-95.7018738-213.3333435-213.3333435    c0-117.6309204,95.7018051-213.333313,213.3333435-213.333313c117.6362,0,213.3333435,95.7024002,213.3333435,213.333313    C469.3333435,373.6319885,373.6362,469.3338623,256,469.3338623z" fill="url(#SVGID_2_)"/></g><g><circle cx="318.4491577" cy="318.6577454" opacity="0.3" r="23.6757183"/><path d="M334,240.8063965H148.999939c-2.7615967,0-4.999939,2.2384033-4.999939,5v67.8511963    c0,2.7610779,2.2383423,5,4.999939,5h17.1013947c0.0010071-18.5679932,15.1087341-33.6746521,33.6767426-33.6746521    c18.5685883,0,33.6752014,15.1066589,33.6768036,33.6746521h51.3184662    c0.0010071-18.5679932,15.1081848-33.6746521,33.6767273-33.6746521c18.5658569,0,33.6730652,15.1066589,33.6746521,33.6746521    H374c5.5226135,0,10-4.4773254,10-10v-17.8511963C384,263.1909485,361.6138,240.8063965,334,240.8063965z" opacity="0.3"/><circle cx="199.7779388" cy="318.6577454" opacity="0.3" r="23.6757336"/><path d="M306.2426147,196.1893311c-3.4869385-6.4805298-10.2528076-10.5221252-17.6122742-10.5221252h-27.6581421    v45.1413269h63.8981323L306.2426147,196.1893311z" opacity="0.3"/><path d="M250.9721985,185.6672058h-45.5050659c-7.3599854,0-14.1253204,4.0415955-17.6122589,10.5221252    l-18.6277313,34.6192017h81.7450562V185.6672058z" opacity="0.3"/></g><g><circle cx="310.4491577" cy="310.6577454" fill="#FFFFFF" r="23.6757183"/><path d="M326,232.8063965H140.999939c-2.7615967,0-4.999939,2.2384033-4.999939,5v67.8511963    c0,2.7610779,2.2383423,5,4.999939,5h17.1013947c0.0010071-18.5679932,15.1087341-33.6746521,33.6767426-33.6746521    c18.5685883,0,33.6752014,15.1066589,33.6768036,33.6746521h51.3184662    c0.0010071-18.5679932,15.1081848-33.6746521,33.6767273-33.6746521c18.5658569,0,33.6730652,15.1066589,33.6746521,33.6746521    H366c5.5226135,0,10-4.4773254,10-10v-17.8511963C376,255.1909332,353.6138,232.8063965,326,232.8063965z" fill="#FFFFFF"/><circle cx="191.7779388" cy="310.6577454" fill="#FFFFFF" r="23.6757336"/><path d="M298.2426147,188.1893311c-3.4869385-6.4805298-10.2528076-10.5221252-17.6122742-10.5221252h-27.6581421    v45.1413269h63.8981323L298.2426147,188.1893311z" fill="#FFFFFF"/><path d="M242.9721985,177.6672058h-45.5050659c-7.3599854,0-14.1253204,4.0415955-17.6122589,10.5221252    l-18.6277313,34.6192017h81.7450562V177.6672058z" fill="#FFFFFF"/></g></g></svg>